<?xml version="1.0" encoding="UTF-8"?>
<svg version="1.1" xmlns="http://www.w3.org/2000/svg" width="420" height="594">
<path d="M0 0 C1.08410156 0.00257813 2.16820313 0.00515625 3.28515625 0.0078125 C4.90744141 0.00394531 4.90744141 0.00394531 6.5625 0 C9.34765625 0.1328125 9.34765625 0.1328125 11.34765625 1.1328125 C11.34765625 2.7828125 11.34765625 4.4328125 11.34765625 6.1328125 C13.32765625 6.7928125 15.30765625 7.4528125 17.34765625 8.1328125 C17.34765625 7.4728125 17.34765625 6.8128125 17.34765625 6.1328125 C19.11328125 5.45703125 19.11328125 5.45703125 21.34765625 5.1328125 C23.26953125 6.27734375 23.26953125 6.27734375 25.09765625 7.9453125 C25.71125 8.48800781 26.32484375 9.03070313 26.95703125 9.58984375 C28.34765625 11.1328125 28.34765625 11.1328125 28.34765625 13.1328125 C29.00765625 13.1328125 29.66765625 13.1328125 30.34765625 13.1328125 C30.84265625 14.6178125 30.84265625 14.6178125 31.34765625 16.1328125 C30.68765625 17.1228125 30.02765625 18.1128125 29.34765625 19.1328125 C29.18052056 21.75812774 29.18052056 21.75812774 29.34765625 24.1328125 C30.55421875 24.101875 30.55421875 24.101875 31.78515625 24.0703125 C34.34765625 24.1328125 34.34765625 24.1328125 35.34765625 25.1328125 C35.44740657 27.64417354 35.48647808 30.12184665 35.47265625 32.6328125 C35.47652344 33.33535156 35.48039062 34.03789062 35.484375 34.76171875 C35.47427003 40.00619872 35.47427003 40.00619872 34.34765625 41.1328125 C32.6814851 41.17345082 31.0137753 41.1755335 29.34765625 41.1328125 C28.38834055 43.32796123 28.38834055 43.32796123 28.34765625 46.1328125 C29.6043591 47.6150774 30.86588619 49.09483893 32.1875 50.51953125 C34.21689639 53.34155385 33.84628274 55.82941198 33.34765625 59.1328125 C32.34765625 61.0703125 32.34765625 61.0703125 30.34765625 62.1328125 C23.77034438 62.99541078 23.77034438 62.99541078 20.4921875 61.0078125 C18.84765625 59.6328125 18.84765625 59.6328125 16.34765625 57.1328125 C14.31523898 57.77261099 14.31523898 57.77261099 12.34765625 59.1328125 C11.69210506 61.66014485 11.69210506 61.66014485 11.34765625 64.1328125 C8.58313592 65.51507266 6.30151995 65.22806637 3.22265625 65.1953125 C2.12695312 65.18628906 1.03125 65.17726563 -0.09765625 65.16796875 C-1.36222656 65.15056641 -1.36222656 65.15056641 -2.65234375 65.1328125 C-3.06484375 64.1634375 -3.47734375 63.1940625 -3.90234375 62.1953125 C-5.30934819 59.10195582 -5.30934819 59.10195582 -7.52734375 58.1328125 C-9.78752552 57.99716135 -9.78752552 57.99716135 -12.21484375 59.1953125 C-13.01921875 59.5046875 -13.82359375 59.8140625 -14.65234375 60.1328125 C-15.64234375 59.4728125 -16.63234375 58.8128125 -17.65234375 58.1328125 C-17.65234375 57.4728125 -17.65234375 56.8128125 -17.65234375 56.1328125 C-18.27109375 55.8646875 -18.88984375 55.5965625 -19.52734375 55.3203125 C-21.65234375 54.1328125 -21.65234375 54.1328125 -23.65234375 51.1328125 C-23.27734375 49.1953125 -23.27734375 49.1953125 -22.65234375 47.1328125 C-22.65234375 45.8128125 -22.65234375 44.4928125 -22.65234375 43.1328125 C-22.65234375 42.4728125 -22.65234375 41.8128125 -22.65234375 41.1328125 C-24.30234375 40.8028125 -25.95234375 40.4728125 -27.65234375 40.1328125 C-28.57585102 37.36229069 -28.8156396 35.56592492 -28.83984375 32.6953125 C-28.85402344 31.93347656 -28.86820312 31.17164063 -28.8828125 30.38671875 C-28.62847041 27.89933935 -27.89251571 26.28473144 -26.65234375 24.1328125 C-25.33234375 24.1328125 -24.01234375 24.1328125 -22.65234375 24.1328125 C-22.56322156 20.30055823 -22.77366646 16.86719098 -23.65234375 13.1328125 C-22.90984375 12.5553125 -22.16734375 11.9778125 -21.40234375 11.3828125 C-18.99146732 9.41027724 -16.81191674 7.37236968 -14.65234375 5.1328125 C-13.55921875 5.4834375 -12.46609375 5.8340625 -11.33984375 6.1953125 C-7.74314002 7.46320704 -7.74314002 7.46320704 -4.65234375 6.1328125 C-4.50796875 5.3284375 -4.36359375 4.5240625 -4.21484375 3.6953125 C-3.44150585 0.17232872 -3.44150585 0.17232872 0 0 Z M-10.65234375 23.1328125 C-11.31234375 23.7928125 -11.97234375 24.4528125 -12.65234375 25.1328125 C-14.31907814 29.63299535 -14.15871908 34.46900784 -12.77734375 39.0078125 C-11.83640251 41.2829657 -11.83640251 41.2829657 -9.65234375 42.1328125 C-9.81605469 41.42769531 -9.97976562 40.72257812 -10.1484375 39.99609375 C-10.66934199 37.03622562 -10.75101107 34.32219977 -10.71484375 31.3203125 C-10.70582031 30.34449219 -10.69679688 29.36867188 -10.6875 28.36328125 C-10.67589844 27.62722656 -10.66429687 26.89117187 -10.65234375 26.1328125 C-6.16141998 28.51036038 -3.12998662 31.4934188 0.34765625 35.1328125 C3.50881401 33.76297747 4.34036545 33.1437487 6.34765625 30.1328125 C5.69796875 29.50632812 5.04828125 28.87984375 4.37890625 28.234375 C3.54359375 27.41710937 2.70828125 26.59984375 1.84765625 25.7578125 C1.01234375 24.94570312 0.17703125 24.13359375 -0.68359375 23.296875 C-2.65234375 21.1328125 -2.65234375 21.1328125 -2.65234375 19.1328125 C0.56636279 17.52345923 3.85690708 17.66023815 7.34765625 18.1328125 C10.98101214 19.64790755 14.08119392 21.95517094 17.34765625 24.1328125 C15.45772929 19.9168216 13.85234615 17.76812601 9.53515625 15.9453125 C0.61665384 13.67196875 -4.570036 16.54364577 -10.65234375 23.1328125 Z M17.34765625 24.1328125 C17.46107262 26.44590955 17.58869432 28.75831435 17.72265625 31.0703125 C17.79226562 32.35808594 17.861875 33.64585937 17.93359375 34.97265625 C18.07023437 36.01550781 18.206875 37.05835938 18.34765625 38.1328125 C19.00765625 38.4628125 19.66765625 38.7928125 20.34765625 39.1328125 C20.42873208 37.19600089 20.486881 35.2582191 20.53515625 33.3203125 C20.56996094 32.24136719 20.60476562 31.16242188 20.640625 30.05078125 C20.61302577 27.11332406 20.61302577 27.11332406 18.8359375 25.24609375 C18.34480469 24.87871094 17.85367188 24.51132813 17.34765625 24.1328125 Z M-9.65234375 42.1328125 C-7.91402843 46.28205761 -5.9354138 47.57501617 -1.9609375 49.44921875 C1.90955008 50.59530221 5.45880223 49.96099437 9.34765625 49.1328125 C8.68765625 48.4728125 8.02765625 47.8128125 7.34765625 47.1328125 C5.35917793 47.16541051 3.37061212 47.20038918 1.3828125 47.26171875 C-1.50970057 47.07850775 -3.3243012 45.77613666 -5.65234375 44.1328125 C-6.31234375 44.1328125 -6.97234375 44.1328125 -7.65234375 44.1328125 C-7.65234375 43.4728125 -7.65234375 42.8128125 -7.65234375 42.1328125 C-8.31234375 42.1328125 -8.97234375 42.1328125 -9.65234375 42.1328125 Z " fill="#445786" transform="translate(99.65234375,228.8671875)"/>
<path d="M0 0 C3.81848624 1.52437593 7.44398242 3.73397754 10 7 C11.00703212 10.02109637 11.09664758 12.21679699 11.1875 15.375 C11.46923746 19.34448838 11.46923746 19.34448838 13.29296875 22.76171875 C15.05823496 24.27182839 15.05823496 24.27182839 18 26 C21.20328895 28.13552597 22.12108473 29.73232126 24 33 C24.66 33.66 25.32 34.32 26 35 C26.5410628 40.95169082 26.5410628 40.95169082 25 43.9375 C21.72222637 45.67881724 18.55435621 45.72303444 15 45 C11.69289807 42.73042024 9.19843087 40.20811042 6.4375 37.3125 C3.99887295 34.99893075 2.17508625 33.99788425 -1 33 C-0.67 32.34 -0.34 31.68 0 31 C-1.175625 31.0825 -2.35125 31.165 -3.5625 31.25 C-8.36548011 31.28424585 -11.05599047 29.62933968 -15 27 C-15 26.34 -15 25.68 -15 25 C-15.66 25 -16.32 25 -17 25 C-19.35785972 20.4316468 -19.42484112 16.02893321 -19 11 C-18.67 10.34 -18.34 9.68 -18 9 C-14.37386801 9.56959153 -12.74482259 10.92374534 -10.25 13.5625 C-9.63640625 14.20316406 -9.0228125 14.84382813 -8.390625 15.50390625 C-7.93171875 15.99761719 -7.4728125 16.49132812 -7 17 C-5.68 16.34 -4.36 15.68 -3 15 C-2.67472392 11.93139369 -2.67472392 11.93139369 -4.75 9.95703125 C-5.86375 8.89548828 -5.86375 8.89548828 -7 7.8125 C-7.7425 7.09707031 -8.485 6.38164062 -9.25 5.64453125 C-9.8275 5.10183594 -10.405 4.55914062 -11 4 C-10.67 3.01 -10.34 2.02 -10 1 C-6.77909495 -0.61045252 -3.49287921 -0.46655787 0 0 Z " fill="#5D5B55" transform="translate(107,246)"/>
<path d="M0 0 C0.66 0 1.32 0 2 0 C1.47731534 2.76276177 0.89130413 5.3260876 0 8 C-1.65 8 -3.3 8 -5 8 C-5 11.63 -5 15.26 -5 19 C-3.02 19 -1.04 19 1 19 C1.33 18.01 1.66 17.02 2 16 C2.33 16 2.66 16 3 16 C3.03738281 15.38511719 3.07476562 14.77023437 3.11328125 14.13671875 C3.17902344 13.32847656 3.24476562 12.52023437 3.3125 11.6875 C3.37050781 10.88699219 3.42851563 10.08648437 3.48828125 9.26171875 C4.08206694 6.63727666 4.95780294 5.69179328 7 4 C7.04898438 4.88042969 7.09796875 5.76085937 7.1484375 6.66796875 C7.22320312 7.82941406 7.29796875 8.99085938 7.375 10.1875 C7.44460937 11.33605469 7.51421875 12.48460937 7.5859375 13.66796875 C8.26998073 19.1725808 10.12456772 23.01982631 14 27 C18.2109721 29.35814438 21.32772265 30.10372539 26.125 30.375 C29.9919612 30.65794838 30.87673469 30.90631837 34.125 33.375 C36 36 36 36 36 39 C35.01 39.33 34.02 39.66 33 40 C32.814375 41.2065625 32.814375 41.2065625 32.625 42.4375 C32.41875 43.283125 32.2125 44.12875 32 45 C29.23547967 46.38226016 26.9538637 46.09525387 23.875 46.0625 C22.77929688 46.05347656 21.68359375 46.04445313 20.5546875 46.03515625 C19.71164063 46.02355469 18.86859375 46.01195312 18 46 C17.5875 45.030625 17.175 44.06125 16.75 43.0625 C15.34299556 39.96914332 15.34299556 39.96914332 13.125 39 C10.86481823 38.86434885 10.86481823 38.86434885 8.4375 40.0625 C7.633125 40.371875 6.82875 40.68125 6 41 C5.01 40.34 4.02 39.68 3 39 C3 38.34 3 37.68 3 37 C2.38125 36.731875 1.7625 36.46375 1.125 36.1875 C-1 35 -1 35 -3 32 C-2.625 30.0625 -2.625 30.0625 -2 28 C-2 26.68 -2 25.36 -2 24 C-2 23.34 -2 22.68 -2 22 C-3.65 21.67 -5.3 21.34 -7 21 C-7.93742541 18.18772378 -8.13470844 16.41253156 -8.125 13.5 C-8.12757812 12.7265625 -8.13015625 11.953125 -8.1328125 11.15625 C-8 9 -8 9 -7 6 C-5.02 6 -3.04 6 -1 6 C-0.67 4.02 -0.34 2.04 0 0 Z " fill="#4B5C86" transform="translate(79,248)"/>
<path d="M0 0 C3.66577816 -0.4165657 5.39263517 -0.46351526 8.375 1.8125 C10.46311283 5.90841363 10.14559508 8.96430613 9.75 13.4765625 C9.72209561 16.16179082 9.72209561 16.16179082 12 17.7109375 C12.66 18.13632812 13.32 18.56171875 14 19 C14 19.66 14 20.32 14 21 C14.66 20.67 15.32 20.34 16 20 C15.34 18.68 14.68 17.36 14 16 C14.763125 16.61875 15.52625 17.2375 16.3125 17.875 C18.99625809 20.05597052 18.99625809 20.05597052 22 22 C21.01 22.66 20.02 23.32 19 24 C19.825 24.680625 20.65 25.36125 21.5 26.0625 C24 29 24 29 24.375 32.75 C24 36 24 36 23 37 C20.08607086 37.33194744 18.57920259 37.44657588 16.21411133 35.62304688 C15.6755249 34.99462891 15.13693848 34.36621094 14.58203125 33.71875 C13.65874023 32.70361328 13.65874023 32.70361328 12.71679688 31.66796875 C11.45573473 30.232298 10.20551061 28.78702833 8.96679688 27.33203125 C5.35766444 23.31781799 5.35766444 23.31781799 0.40795898 21.59057617 C-2.23704449 21.59650674 -2.23704449 21.59650674 -4.73925781 21.90112305 C-7 22 -7 22 -10.5625 20.3125 C-13.21261372 17.79828955 -13.80037128 16.59331694 -14 13 C-12.25 12.3125 -12.25 12.3125 -10 12 C-7.75 13.4375 -7.75 13.4375 -6 15 C-2.64084842 13.56036361 -0.28375062 11.87583411 2 9 C1.89582173 6.99660454 1.89582173 6.99660454 1 5 C0.65939189 3.33480481 0.32441604 1.66842534 0 0 Z " fill="#A4A29D" transform="translate(106,252)"/>
<path d="M0 0 C2.475 0.99 2.475 0.99 5 2 C4.38125 2.144375 3.7625 2.28875 3.125 2.4375 C0.96741678 2.93152225 0.96741678 2.93152225 -1 4 C0.258125 4.144375 1.51625 4.28875 2.8125 4.4375 C5.42667123 4.73748686 7.47439892 5.15813297 10 6 C8.02 6.99 8.02 6.99 6 8 C6.33 8.33 6.66 8.66 7 9 C7.845625 8.835 8.69125 8.67 9.5625 8.5 C13.67837019 7.90132797 16.90148235 8.36402312 21 9 C21 9.33 21 9.66 21 10 C19.824375 10.2475 18.64875 10.495 17.4375 10.75 C12.27781524 12.04906957 7.83384873 13.97644278 4.1875 18 C3.02247977 19.96213933 1.96095076 21.93025991 1 24 C0.67 22.35 0.34 20.7 0 19 C-1.28446919 21.56893838 -1.32977144 23.76576337 -1.5625 26.625 C-1.64628906 27.62789063 -1.73007813 28.63078125 -1.81640625 29.6640625 C-1.87699219 30.43492187 -1.93757813 31.20578125 -2 32 C-2.66 31.67 -3.32 31.34 -4 31 C-4.33 31.66 -4.66 32.32 -5 33 C-6.98 33 -8.96 33 -11 33 C-11 29.37 -11 25.74 -11 22 C-9.35 22 -7.7 22 -6 22 C-5.7834375 20.8553125 -5.7834375 20.8553125 -5.5625 19.6875 C-5 17 -5 17 -4 14 C-4.66 14 -5.32 14 -6 14 C-6.33 15.98 -6.66 17.96 -7 20 C-8.65 20 -10.3 20 -12 20 C-10.68 19.67 -9.36 19.34 -8 19 C-7.91087781 15.16774573 -8.12132271 11.73437848 -9 8 C-7.88625 7.13375 -7.88625 7.13375 -6.75 6.25 C-4.33912357 4.27746474 -2.15957299 2.23955718 0 0 Z " fill="#44537D" transform="translate(85,234)"/>
<path d="M0 0 C0.87454834 0.00523682 1.74909668 0.01047363 2.65014648 0.01586914 C3.59438477 0.0190918 4.53862305 0.02231445 5.51147461 0.02563477 C6.50469727 0.03401367 7.49791992 0.04239258 8.52124023 0.05102539 C9.51833008 0.05553711 10.51541992 0.06004883 11.54272461 0.06469727 C14.01478872 0.07652532 16.48673541 0.0930069 18.95874023 0.11352539 C18.95874023 1.76352539 18.95874023 3.41352539 18.95874023 5.11352539 C13.34874023 5.11352539 7.73874023 5.11352539 1.95874023 5.11352539 C1.95874023 6.10352539 1.95874023 7.09352539 1.95874023 8.11352539 C6.90874023 8.11352539 11.85874023 8.11352539 16.95874023 8.11352539 C16.95874023 9.43352539 16.95874023 10.75352539 16.95874023 12.11352539 C12.00874023 12.11352539 7.05874023 12.11352539 1.95874023 12.11352539 C1.95874023 13.10352539 1.95874023 14.09352539 1.95874023 15.11352539 C7.56874023 15.11352539 13.17874023 15.11352539 18.95874023 15.11352539 C18.95874023 16.43352539 18.95874023 17.75352539 18.95874023 19.11352539 C15.47959083 19.14240353 12.00047193 19.16028226 8.52124023 19.17602539 C7.03140625 19.18859375 7.03140625 19.18859375 5.51147461 19.20141602 C4.56723633 19.20463867 3.62299805 19.20786133 2.65014648 19.21118164 C1.33832397 19.21903687 1.33832397 19.21903687 0 19.22705078 C-2.04125977 19.11352539 -2.04125977 19.11352539 -3.04125977 18.11352539 C-3.14112951 15.27017491 -3.18003858 12.45655376 -3.16625977 9.61352539 C-3.17012695 8.8155957 -3.17399414 8.01766602 -3.17797852 7.19555664 C-3.1660609 0.17608161 -3.1660609 0.17608161 0 0 Z " fill="#4F7AB5" transform="translate(209.041259765625,240.886474609375)"/>
<path d="M0 0 C6.93 0 13.86 0 21 0 C21 1.32 21 2.64 21 4 C15.72 4 10.44 4 5 4 C5 4.99 5 5.98 5 7 C9.95 7 14.9 7 20 7 C20 8.32 20 9.64 20 11 C15.05 11 10.1 11 5 11 C5 11.99 5 12.98 5 14 C10.28 14 15.56 14 21 14 C21 15.65 21 17.3 21 19 C14.07 19 7.14 19 0 19 C0 12.73 0 6.46 0 0 Z " fill="#3869A5" transform="translate(155,266)"/>
<path d="M0 0 C2.88413817 -0.33140718 5.4925015 -0.46383512 8.375 -0.4375 C9.52742187 -0.4674707 9.52742187 -0.4674707 10.703125 -0.49804688 C14.61487493 -0.49466301 16.39784919 -0.48079426 19.5390625 2.02734375 C20.02117187 2.67832031 20.50328125 3.32929688 21 4 C20.67 4.99 20.34 5.98 20 7 C18.68 7 17.36 7 16 7 C15.67 6.34 15.34 5.68 15 5 C12.1840151 4.53101037 12.1840151 4.53101037 8.9375 4.375 C7.28041016 4.26285156 7.28041016 4.26285156 5.58984375 4.1484375 C4.73519531 4.09945313 3.88054687 4.05046875 3 4 C3 6.97 3 9.94 3 13 C7.29 13.33 11.58 13.66 16 14 C16 13.34 16 12.68 16 12 C13.36 12 10.72 12 8 12 C8 10.68 8 9.36 8 8 C11.96 8 15.92 8 20 8 C21.21380846 13.34075724 21.21380846 13.34075724 20.25 16.3125 C19 18 19 18 16 19 C13.69060412 19.14591566 11.37631759 19.22086484 9.0625 19.25 C7.22365234 19.28867187 7.22365234 19.28867187 5.34765625 19.328125 C1.75659207 18.97614205 0.31241043 18.7634732 -2 16 C-2.4609375 12.96875 -2.4609375 12.96875 -2.375 9.5 C-2.36210937 8.3553125 -2.34921875 7.210625 -2.3359375 6.03125 C-2 3 -2 3 0 0 Z " fill="#5883BB" transform="translate(207,266)"/>
<path d="M0 0 C1.08667969 -0.01740234 1.08667969 -0.01740234 2.1953125 -0.03515625 C7.44731368 -0.00608613 7.44731368 -0.00608613 9.9375 1.7109375 C11 3.375 11 3.375 12 6.375 C10.35 6.705 8.7 7.035 7 7.375 C6.67 6.715 6.34 6.055 6 5.375 C3.1840151 4.90601037 3.1840151 4.90601037 -0.0625 4.75 C-1.71958984 4.63785156 -1.71958984 4.63785156 -3.41015625 4.5234375 C-4.26480469 4.47445313 -5.11945313 4.42546875 -6 4.375 C-6 7.345 -6 10.315 -6 13.375 C-1.71 13.705 2.58 14.035 7 14.375 C7 13.715 7 13.055 7 12.375 C4.36 12.375 1.72 12.375 -1 12.375 C-1 11.055 -1 9.735 -1 8.375 C2.96 8.375 6.92 8.375 11 8.375 C11.8125 11.0625 11.8125 11.0625 12 14.375 C10.37810451 17.3592877 9.98671011 18.05134438 7 19.375 C1.51395156 20.06075606 -4.29336531 20.6404396 -9.40625 18.25 C-11.74107764 15.50314395 -11.49750782 13.42746308 -11.4375 9.875 C-11.43621094 8.7303125 -11.43492187 7.585625 -11.43359375 6.40625 C-11 3.375 -11 3.375 -9.97265625 1.4921875 C-6.8077913 -0.30019146 -3.53557996 -0.05661961 0 0 Z " fill="#4072B3" transform="translate(381,265.625)"/>
<path d="M0 0 C6.93 0 13.86 0 21 0 C21 1.32 21 2.64 21 4 C15.39 4 9.78 4 4 4 C4 4.99 4 5.98 4 7 C8.95 7 13.9 7 19 7 C19 8.32 19 9.64 19 11 C14.05 11 9.1 11 4 11 C4 11.99 4 12.98 4 14 C9.61 14 15.22 14 21 14 C21 15.65 21 17.3 21 19 C14.07 19 7.14 19 0 19 C0 12.73 0 6.46 0 0 Z " fill="#5886C2" transform="translate(288,266)"/>
<path d="M0 0 C6.93 0 13.86 0 21 0 C21 1.32 21 2.64 21 4 C15.39 4 9.78 4 4 4 C4 4.99 4 5.98 4 7 C8.95 7 13.9 7 19 7 C19 8.32 19 9.64 19 11 C14.05 11 9.1 11 4 11 C4 11.99 4 12.98 4 14 C9.61 14 15.22 14 21 14 C21 15.65 21 17.3 21 19 C14.07 19 7.14 19 0 19 C0 12.73 0 6.46 0 0 Z " fill="#0B4795" transform="translate(264,266)"/>
<path d="M0 0 C3.29188269 -0.05376941 6.58289426 -0.09356106 9.875 -0.125 C10.81214844 -0.14175781 11.74929688 -0.15851563 12.71484375 -0.17578125 C13.61074219 -0.18222656 14.50664062 -0.18867188 15.4296875 -0.1953125 C16.25710449 -0.20578613 17.08452148 -0.21625977 17.93701172 -0.22705078 C20 0 20 0 22 2 C22.14517744 4.9093558 22.18630796 7.719946 22.125 10.625 C22.11597656 11.42679687 22.10695313 12.22859375 22.09765625 13.0546875 C22.07406223 15.03658523 22.03819065 17.01832981 22 19 C20.68 19 19.36 19 18 19 C18 17.02 18 15.04 18 13 C13.38 13 8.76 13 4 13 C4 14.98 4 16.96 4 19 C2.68 19 1.36 19 0 19 C0 12.73 0 6.46 0 0 Z M4 4 C4 5.32 4 6.64 4 8 C8.62 8 13.24 8 18 8 C18 6.68 18 5.36 18 4 C13.38 4 8.76 4 4 4 Z " fill="#386AAE" transform="translate(312,266)"/>
<path d="M0 0 C5.28775344 0 5.96801257 0.25095549 9.8125 3.375 C10.99779297 4.31472656 10.99779297 4.31472656 12.20703125 5.2734375 C12.79871094 5.84320313 13.39039063 6.41296875 14 7 C14 7.66 14 8.32 14 9 C14.99 9.33 15.98 9.66 17 10 C17.33 6.7 17.66 3.4 18 0 C19.65 0 21.3 0 23 0 C23 6.27 23 12.54 23 19 C17.75137211 17.95027442 16.19947912 16.87306865 12.25 13.5 C11.28578125 12.6853125 10.3215625 11.870625 9.328125 11.03125 C7 9 7 9 6 8 C5.67 11.63 5.34 15.26 5 19 C3.35 19 1.7 19 0 19 C0 12.73 0 6.46 0 0 Z " fill="#648DC4" transform="translate(179,266)"/>
<path d="M0 0 C3.073125 -0.04125 6.14625 -0.0825 9.3125 -0.125 C10.27712158 -0.14320801 11.24174316 -0.16141602 12.2355957 -0.18017578 C12.99960693 -0.1851709 13.76361816 -0.19016602 14.55078125 -0.1953125 C15.72120972 -0.21102295 15.72120972 -0.21102295 16.9152832 -0.22705078 C19 0 19 0 22 2 C22.3984375 4.09375 22.3984375 4.09375 22.375 6.5 C22.38273437 7.2940625 22.39046875 8.088125 22.3984375 8.90625 C22.26695312 9.5971875 22.13546875 10.288125 22 11 C18.31912647 13.45391569 15.55644412 13.22802759 11.3125 13.125 C10.2596582 13.11146484 10.2596582 13.11146484 9.18554688 13.09765625 C7.45688475 13.07413704 5.72839855 13.03826713 4 13 C4 14.98 4 16.96 4 19 C2.68 19 1.36 19 0 19 C0 12.73 0 6.46 0 0 Z M4 5 C4 5.99 4 6.98 4 8 C8.62 8 13.24 8 18 8 C18 7.01 18 6.02 18 5 C13.38 5 8.76 5 4 5 Z " fill="#0649A2" transform="translate(182,241)"/>
<path d="M0 0 C5.28775344 0 5.96801257 0.25095549 9.8125 3.375 C10.99779297 4.31472656 10.99779297 4.31472656 12.20703125 5.2734375 C12.79871094 5.84320313 13.39039063 6.41296875 14 7 C14 7.66 14 8.32 14 9 C15.32 9.66 16.64 10.32 18 11 C18.33 7.37 18.66 3.74 19 0 C20.32 0 21.64 0 23 0 C23 6.27 23 12.54 23 19 C17.75137211 17.95027442 16.19947912 16.87306865 12.25 13.5 C11.28578125 12.6853125 10.3215625 11.870625 9.328125 11.03125 C7 9 7 9 6 8 C5.67 11.63 5.34 15.26 5 19 C3.35 19 1.7 19 0 19 C0 12.73 0 6.46 0 0 Z " fill="#3F6DAE" transform="translate(344,266)"/>
<path d="M0 0 C5.69489969 0 7.6644723 1.57799276 11.8125 5 C12.40998047 5.47695313 13.00746094 5.95390625 13.62304688 6.4453125 C15.09070918 7.61944235 16.54656139 8.80830803 18 10 C18.33 6.7 18.66 3.4 19 0 C20.32 0 21.64 0 23 0 C23 6.27 23 12.54 23 19 C17.81076576 17.96215315 15.48444602 16.29154588 11.6875 12.9375 C11.13771484 12.46505859 10.58792969 11.99261719 10.02148438 11.50585938 C8.6737304 10.345619 7.33584883 9.17392776 6 8 C5.67 11.63 5.34 15.26 5 19 C3.35 18.67 1.7 18.34 0 18 C0 12.06 0 6.12 0 0 Z " fill="#3F77B5" transform="translate(237,266)"/>
<path d="M0 0 C6.14689273 0.36881356 8.69027374 1.90050429 13 6 C13.845625 5.01 14.69125 4.02 15.5625 3 C18.26449693 0.25286231 18.78228878 0.02106883 22.875 -0.375 C24.421875 -0.189375 24.421875 -0.189375 26 0 C26 0.66 26 1.32 26 2 C24.28515625 3.69140625 24.28515625 3.69140625 22.0625 5.5625 C21.33160156 6.18253906 20.60070312 6.80257812 19.84765625 7.44140625 C19.23792969 7.95574219 18.62820312 8.47007812 18 9 C17.67 9.33 17.34 9.66 17 10 C17.66 10.33 18.32 10.66 19 11 C19 11.66 19 12.32 19 13 C19.598125 13.2475 20.19625 13.495 20.8125 13.75 C23.28647521 15.16370012 24.43370255 16.65055383 26 19 C19.88410104 19.6115899 19.88410104 19.6115899 17.33984375 17.8515625 C16.83582031 17.38492187 16.33179688 16.91828125 15.8125 16.4375 C13.3365629 13.77153008 13.3365629 13.77153008 10.75 13.9375 C8.52934887 15.28575247 7.92520876 16.60987736 7 19 C4.69 19 2.38 19 0 19 C1.5830577 14.7257442 4.50568404 12.73468206 8 10 C7.505 9.54625 7.01 9.0925 6.5 8.625 C5 7 5 7 5 5 C4.360625 4.731875 3.72125 4.46375 3.0625 4.1875 C1 3 1 3 0 0 Z " fill="#4575B5" transform="translate(229,241)"/>
<path d="M0 0 C1.32 0 2.64 0 4 0 C5.46386719 1.52880859 5.46386719 1.52880859 6.796875 3.6484375 C7.28027344 4.40640625 7.76367188 5.164375 8.26171875 5.9453125 C8.75285156 6.74710938 9.24398437 7.54890625 9.75 8.375 C10.25660156 9.1690625 10.76320312 9.963125 11.28515625 10.78125 C15 16.688953 15 16.688953 15 19 C12.625 19.125 12.625 19.125 10 19 C9.34 18.34 8.68 17.68 8 17 C4.87803664 16.53513282 4.87803664 16.53513282 1.375 16.375 C-0.40777344 16.26285156 -0.40777344 16.26285156 -2.2265625 16.1484375 C-3.14179688 16.09945313 -4.05703125 16.05046875 -5 16 C-5.33 16.99 -5.66 17.98 -6 19 C-7.65 19 -9.3 19 -11 19 C-10.37231912 14.99249902 -8.32750519 12.24285115 -6.0625 8.9375 C-5.35222656 7.89464844 -4.64195312 6.85179687 -3.91015625 5.77734375 C-3.27980469 4.86082031 -2.64945313 3.94429687 -2 3 C-1.34 2.01 -0.68 1.02 0 0 Z M1 7 C0.34 8.32 -0.32 9.64 -1 11 C0.65 11 2.3 11 4 11 C3.67 9.68 3.34 8.36 3 7 C2.34 7 1.68 7 1 7 Z " fill="#3B6DAD" transform="translate(165,241)"/>
<path d="M0 0 C1.98 0 3.96 0 6 0 C6.02685095 2.47923801 6.04676547 4.9581884 6.0625 7.4375 C6.07087891 8.14455078 6.07925781 8.85160156 6.08789062 9.58007812 C6.09653588 11.38693559 6.05220011 13.19387603 6 15 C5 16 5 16 2.4375 16.0625 C1.633125 16.041875 0.82875 16.02125 0 16 C-0.33 16.99 -0.66 17.98 -1 19 C-4.82027342 18.45424665 -6.62901087 17.01396923 -9 14 C-9.171875 10.984375 -9.171875 10.984375 -8.75 7.75 C-8.62109375 6.67234375 -8.4921875 5.5946875 -8.359375 4.484375 C-8.24078125 3.66453125 -8.1221875 2.8446875 -8 2 C-7.01 3.485 -7.01 3.485 -6 5 C-5.67 3.68 -5.34 2.36 -5 1 C-3.35 1 -1.7 1 0 1 C0 0.67 0 0.34 0 0 Z " fill="#455788" transform="translate(129,254)"/>
<path d="M0 0 C1.175625 1.2065625 1.175625 1.2065625 2.375 2.4375 C4.71982856 4.98690417 4.71982856 4.98690417 7 6 C8.5467054 5.87819807 10.09218013 5.74049385 11.63671875 5.59375 C15.99520015 5.5498753 17.94899122 6.24525452 21.08203125 9.28125 C22.35227527 10.6633808 23.59562624 12.07065622 24.8125 13.5 C26.05703699 14.9168575 27.3131536 16.32364892 28.58203125 17.71875 C29.12061768 18.34716797 29.6592041 18.97558594 30.21411133 19.62304688 C32.56031383 21.4320123 34.11186838 21.25905292 37 21 C37.41831404 17.71000718 37.41831404 17.71000718 37 14 C34.64581624 11.06026719 34.64581624 11.06026719 32 9 C33.32 8.67 34.64 8.34 36 8 C40.86220472 12.98375984 40.86220472 12.98375984 41.5 17.6875 C41 21 41 21 40 22.9375 C36.72222637 24.67881724 33.55435621 24.72303444 30 24 C26.69289807 21.73042024 24.19843087 19.20811042 21.4375 16.3125 C18.99887295 13.99893075 17.17508625 12.99788425 14 12 C14.33 11.34 14.66 10.68 15 10 C13.824375 10.0825 12.64875 10.165 11.4375 10.25 C6.63451989 10.28424585 3.94400953 8.62933968 0 6 C0 5.34 0 4.68 0 4 C-0.66 4 -1.32 4 -2 4 C-2 3.34 -2 2.68 -2 2 C-1.34 2 -0.68 2 0 2 C0 1.34 0 0.68 0 0 Z " fill="#696963" transform="translate(92,267)"/>
<path d="M0 0 C0.66 0 1.32 0 2 0 C1.47731534 2.76276177 0.89130413 5.3260876 0 8 C-1.65 8 -3.3 8 -5 8 C-5 11.63 -5 15.26 -5 19 C-3.02 19 -1.04 19 1 19 C1.33 18.01 1.66 17.02 2 16 C2.33 16 2.66 16 3 16 C3.03738281 15.38511719 3.07476562 14.77023437 3.11328125 14.13671875 C3.17902344 13.32847656 3.24476562 12.52023437 3.3125 11.6875 C3.37050781 10.88699219 3.42851563 10.08648437 3.48828125 9.26171875 C4 7 4 7 7 4 C7 9.61 7 15.22 7 21 C6.34 21 5.68 21 5 21 C5 21.99 5 22.98 5 24 C4.34 24 3.68 24 3 24 C2.87625 25.134375 2.7525 26.26875 2.625 27.4375 C2.41875 28.613125 2.2125 29.78875 2 31 C1.34 31.33 0.68 31.66 0 32 C-0.144375 30.906875 -0.28875 29.81375 -0.4375 28.6875 C-0.88288104 25.06877013 -0.88288104 25.06877013 -2 22 C-3.65 21.67 -5.3 21.34 -7 21 C-7.93742541 18.18772378 -8.13470844 16.41253156 -8.125 13.5 C-8.12757812 12.7265625 -8.13015625 11.953125 -8.1328125 11.15625 C-8 9 -8 9 -7 6 C-5.02 6 -3.04 6 -1 6 C-0.67 4.02 -0.34 2.04 0 0 Z " fill="#424E65" transform="translate(79,248)"/>
<path d="M0 0 C6.93 0 13.86 0 21 0 C21 1.32 21 2.64 21 4 C15.39 4 9.78 4 4 4 C3.67 4.66 3.34 5.32 3 6 C2.67 5.34 2.34 4.68 2 4 C1.67 8.62 1.34 13.24 1 18 C7.27 18 13.54 18 20 18 C20 17.01 20 16.02 20 15 C14.39 15 8.78 15 3 15 C3.33 14.01 3.66 13.02 4 12 C4 12.66 4 13.32 4 14 C9.61 14 15.22 14 21 14 C21 15.65 21 17.3 21 19 C14.07 19 7.14 19 0 19 C0 12.73 0 6.46 0 0 Z " fill="#487AB9" transform="translate(264,266)"/>
<path d="M0 0 C3.3 0 6.6 0 10 0 C10.33 0.99 10.66 1.98 11 3 C11.66 3 12.32 3 13 3 C13.33 2.34 13.66 1.68 14 1 C14.99 2.32 15.98 3.64 17 5 C16.01 5.33 15.02 5.66 14 6 C13.87625 6.804375 13.7525 7.60875 13.625 8.4375 C13.41875 9.283125 13.2125 10.12875 13 11 C10.23547967 12.38226016 7.9538637 12.09525387 4.875 12.0625 C3.77929688 12.05347656 2.68359375 12.04445313 1.5546875 12.03515625 C0.29011719 12.01775391 0.29011719 12.01775391 -1 12 C-1 11.67 -1 11.34 -1 11 C2.63 11 6.26 11 10 11 C10 10.34 10 9.68 10 9 C6.7 9 3.4 9 0 9 C0 6.03 0 3.06 0 0 Z " fill="#45578A" transform="translate(98,282)"/>
<path d="M0 0 C1.08667969 -0.01740234 1.08667969 -0.01740234 2.1953125 -0.03515625 C7.44731368 -0.00608613 7.44731368 -0.00608613 9.9375 1.7109375 C11 3.375 11 3.375 12 6.375 C10.35 6.705 8.7 7.035 7 7.375 C6.67 6.715 6.34 6.055 6 5.375 C3.1840151 4.90601037 3.1840151 4.90601037 -0.0625 4.75 C-1.71958984 4.63785156 -1.71958984 4.63785156 -3.41015625 4.5234375 C-4.26480469 4.47445313 -5.11945313 4.42546875 -6 4.375 C-6.33 7.015 -6.66 9.655 -7 12.375 C-7.66 12.375 -8.32 12.375 -9 12.375 C-9 13.365 -9 14.355 -9 15.375 C-9.66 15.375 -10.32 15.375 -11 15.375 C-11.08107583 13.43818839 -11.13922475 11.5004066 -11.1875 9.5625 C-11.22230469 8.48355469 -11.25710938 7.40460938 -11.29296875 6.29296875 C-11 3.375 -11 3.375 -9.98828125 1.51171875 C-6.81792448 -0.30080349 -3.54863379 -0.05682865 0 0 Z " fill="#2358A2" transform="translate(381,265.625)"/>
<path d="M0 0 C5.61 0 11.22 0 17 0 C17.33 0.66 17.66 1.32 18 2 C13.05 2.33 8.1 2.66 3 3 C3 4.65 3 6.3 3 8 C7.62 8 12.24 8 17 8 C17.33 8.99 17.66 9.98 18 11 C13.05 11 8.1 11 3 11 C3 12.98 3 14.96 3 17 C2.01 17 1.02 17 0 17 C0 11.39 0 5.78 0 0 Z " fill="#09479D" transform="translate(312,267)"/>
<path d="M0 0 C1.6875 2.0625 1.6875 2.0625 1.6875 4.0625 C-1.25 3.6875 -1.25 3.6875 -4.3125 3.0625 C-4.6425 2.4025 -4.9725 1.7425 -5.3125 1.0625 C-8.2825 1.0625 -11.2525 1.0625 -14.3125 1.0625 C-14.6425 3.7025 -14.9725 6.3425 -15.3125 9.0625 C-12.0125 9.0625 -8.7125 9.0625 -5.3125 9.0625 C-5.3125 9.7225 -5.3125 10.3825 -5.3125 11.0625 C-9.2725 11.0625 -13.2325 11.0625 -17.3125 11.0625 C-17.93125 9.70125 -17.93125 9.70125 -18.5625 8.3125 C-20.20300718 5.26584382 -21.75968361 3.35123194 -24.3125 1.0625 C-23.3225 1.0625 -22.3325 1.0625 -21.3125 1.0625 C-20.9825 0.4025 -20.6525 -0.2575 -20.3125 -0.9375 C-19.6525 -0.9375 -18.9925 -0.9375 -18.3125 -0.9375 C-17.9825 -1.2675 -17.6525 -1.5975 -17.3125 -1.9375 C-4.80128924 -4.02270179 -4.80128924 -4.02270179 0 0 Z " fill="#44567E" transform="translate(113.3125,281.9375)"/>
<path d="M0 0 C0.77279297 -0.02900391 1.54558594 -0.05800781 2.34179688 -0.08789062 C8.10225359 -0.15228094 8.10225359 -0.15228094 11.23046875 2.33203125 C11.71128906 2.98558594 12.19210938 3.63914062 12.6875 4.3125 C12.3575 5.3025 12.0275 6.2925 11.6875 7.3125 C10.3675 7.3125 9.0475 7.3125 7.6875 7.3125 C7.3575 6.6525 7.0275 5.9925 6.6875 5.3125 C2.0675 5.3125 -2.5525 5.3125 -7.3125 5.3125 C-7.3125 8.6125 -7.3125 11.9125 -7.3125 15.3125 C-7.9725 15.3125 -8.6325 15.3125 -9.3125 15.3125 C-9.33935412 13.00006208 -9.35882841 10.6875373 -9.375 8.375 C-9.38660156 7.08722656 -9.39820313 5.79945313 -9.41015625 4.47265625 C-9.22366366 -1.56224389 -4.93972562 0.06088405 0 0 Z " fill="#0C4B9D" transform="translate(215.3125,265.6875)"/>
<path d="M0 0 C3.09375 -0.04125 6.1875 -0.0825 9.375 -0.125 C10.83558838 -0.15231201 10.83558838 -0.15231201 12.32568359 -0.18017578 C13.09219238 -0.1851709 13.85870117 -0.19016602 14.6484375 -0.1953125 C15.82672119 -0.21102295 15.82672119 -0.21102295 17.02880859 -0.22705078 C19 0 19 0 21 2 C17.37 2 13.74 2 10 2 C11.65 2.33 13.3 2.66 15 3 C15 3.66 15 4.32 15 5 C11.37 5 7.74 5 4 5 C4 5.99 4 6.98 4 8 C8.62 8 13.24 8 18 8 C18 8.33 18 8.66 18 9 C13.05 9 8.1 9 3 9 C2.67 8.34 2.34 7.68 2 7 C1.67 10.63 1.34 14.26 1 18 C1.66 18 2.32 18 3 18 C3.33 17.34 3.66 16.68 4 16 C4 16.99 4 17.98 4 19 C2.68 19 1.36 19 0 19 C0 12.73 0 6.46 0 0 Z " fill="#507DB6" transform="translate(182,241)"/>
<path d="M0 0 C2.22963467 2.76050007 1.98413649 4.15863512 1.625 7.75 C1.41875 8.8225 1.2125 9.895 1 11 C-6.5273523 8.6892779 -6.5273523 8.6892779 -8.5 5.8125 C-8.665 5.214375 -8.83 4.61625 -9 4 C-9.66 4 -10.32 4 -11 4 C-11 3.01 -11 2.02 -11 1 C-3.07076664 -1.59224937 -3.07076664 -1.59224937 0 0 Z " fill="#455785" transform="translate(123,239)"/>
<path d="M0 0 C0.33 0.99 0.66 1.98 1 3 C5.95 3 10.9 3 16 3 C16 4.32 16 5.64 16 7 C11.05 7 6.1 7 1 7 C1 7.99 1 8.98 1 10 C6.28 10 11.56 10 17 10 C17 10.33 17 10.66 17 11 C11.39 11 5.78 11 0 11 C0 10.01 0 9.02 0 8 C-0.66 8 -1.32 8 -2 8 C-1.47731534 5.23723823 -0.89130413 2.6739124 0 0 Z " fill="#366CB1" transform="translate(159,270)"/>
<path d="M0 0 C1.08410156 0.00257813 2.16820313 0.00515625 3.28515625 0.0078125 C4.90744141 0.00394531 4.90744141 0.00394531 6.5625 0 C9.34765625 0.1328125 9.34765625 0.1328125 11.34765625 1.1328125 C11.34765625 2.7828125 11.34765625 4.4328125 11.34765625 6.1328125 C12.66765625 6.7928125 13.98765625 7.4528125 15.34765625 8.1328125 C13.36765625 8.4628125 11.38765625 8.7928125 9.34765625 9.1328125 C9.01765625 7.4828125 8.68765625 5.8328125 8.34765625 4.1328125 C5.37765625 4.1328125 2.40765625 4.1328125 -0.65234375 4.1328125 C-0.98234375 5.4528125 -1.31234375 6.7728125 -1.65234375 8.1328125 C-3.63234375 8.1328125 -5.61234375 8.1328125 -7.65234375 8.1328125 C-7.32234375 7.4728125 -6.99234375 6.8128125 -6.65234375 6.1328125 C-5.99234375 6.1328125 -5.33234375 6.1328125 -4.65234375 6.1328125 C-4.50796875 5.3284375 -4.36359375 4.5240625 -4.21484375 3.6953125 C-3.44150585 0.17232872 -3.44150585 0.17232872 0 0 Z " fill="#5D636C" transform="translate(99.65234375,228.8671875)"/>
<path d="M0 0 C1.65 0 3.3 0 5 0 C5 5.94 5 11.88 5 18 C3.35 18.33 1.7 18.66 0 19 C0 12.73 0 6.46 0 0 Z " fill="#4675B2" transform="translate(230,266)"/>
<path d="M0 0 C1.32 0 2.64 0 4 0 C4 6.27 4 12.54 4 19 C-1.02137798 17.9957244 -1.86243419 17.60239038 -5 14 C-1.535 13.505 -1.535 13.505 2 13 C1.34 12.01 0.68 11.02 0 10 C-0.1953125 7.51953125 -0.1953125 7.51953125 -0.125 4.8125 C-0.10695312 3.91144531 -0.08890625 3.01039063 -0.0703125 2.08203125 C-0.04710937 1.39496094 -0.02390625 0.70789063 0 0 Z " fill="#376BAD" transform="translate(198,266)"/>
<path d="M0 0 C1.32 0 2.64 0 4 0 C4 6.27 4 12.54 4 19 C2.35 18.67 0.7 18.34 -1 18 C-2.3125 15.4375 -2.3125 15.4375 -3 13 C-1.68 13 -0.36 13 1 13 C0.67 12.34 0.34 11.68 0 11 C-0.07033769 9.12620395 -0.0843022 7.24998898 -0.0625 5.375 C-0.05347656 4.37210937 -0.04445313 3.36921875 -0.03515625 2.3359375 C-0.01775391 1.17964844 -0.01775391 1.17964844 0 0 Z " fill="#3768A8" transform="translate(363,266)"/>
<path d="M0 0 C2 3 2 3 2 5 C3.65 5 5.3 5 7 5 C5.9375 6.5625 5.9375 6.5625 4 8 C0.3125 7.6875 0.3125 7.6875 -3 7 C-3 8.65 -3 10.3 -3 12 C-3.66 11.67 -4.32 11.34 -5 11 C-5.33 12.65 -5.66 14.3 -6 16 C-6.33 16 -6.66 16 -7 16 C-7.12117188 15.33613281 -7.24234375 14.67226563 -7.3671875 13.98828125 C-8.22547708 9.46575541 -9.03971311 5.20061476 -11 1 C-10.01 1 -9.02 1 -8 1 C-7.67 1.66 -7.34 2.32 -7 3 C-6.34 2.67 -5.68 2.34 -5 2 C-4.01 2.66 -3.02 3.32 -2 4 C-1.34 2.68 -0.68 1.36 0 0 Z " fill="#46547D" transform="translate(127,248)"/>
<path d="M0 0 C1.32 0 2.64 0 4 0 C4 6.27 4 12.54 4 19 C2.68 19 1.36 19 0 19 C0 12.73 0 6.46 0 0 Z " fill="#30578F" transform="translate(337,266)"/>
<path d="M0 0 C0.55429687 0.42152344 1.10859375 0.84304688 1.6796875 1.27734375 C2.40414063 1.82519531 3.12859375 2.37304688 3.875 2.9375 C4.59429687 3.48277344 5.31359375 4.02804687 6.0546875 4.58984375 C7.94357079 6.03964624 7.94357079 6.03964624 10 7 C10 7.66 10 8.32 10 9 C11.98 9.66 13.96 10.32 16 11 C16 11.66 16 12.32 16 13 C14.68 13 13.36 13 12 13 C12.33 13.99 12.66 14.98 13 16 C10.00779732 14.63629701 7.70973471 13.05091917 5.25 10.875 C4.63640625 10.33617187 4.0228125 9.79734375 3.390625 9.2421875 C2.93171875 8.83226562 2.4728125 8.42234375 2 8 C2.66 7.34 3.32 6.68 4 6 C2.68 5.34 1.36 4.68 0 4 C0 2.68 0 1.36 0 0 Z " fill="#4073B7" transform="translate(348,266)"/>
<path d="M0 0 C3.23087421 0.55704728 5.02361137 1.33187535 7 4 C7 5.32 7 6.64 7 8 C6.01 8.33 5.02 8.66 4 9 C3.67 10.65 3.34 12.3 3 14 C2.01 14 1.02 14 0 14 C-0.94238698 11.17283905 -1.13465647 9.36823877 -1.125 6.4375 C-1.12757812 5.65246094 -1.13015625 4.86742187 -1.1328125 4.05859375 C-1 2 -1 2 0 0 Z " fill="#4E4C45" transform="translate(89,255)"/>
<path d="M0 0 C6.47502759 -0.31107784 11.33826275 -0.52285874 17 3 C18.38616499 3.76772215 19.78264744 4.51703345 21.1875 5.25 C21.84105469 5.60578125 22.49460937 5.9615625 23.16796875 6.328125 C25.18628487 7.28431414 25.18628487 7.28431414 28 6 C28 5.34 28 4.68 28 4 C28.66 4 29.32 4 30 4 C29.34 6.31 28.68 8.62 28 11 C27.401875 10.67 26.80375 10.34 26.1875 10 C23.94613529 8.79212012 23.94613529 8.79212012 21 9 C21 8.34 21 7.68 21 7 C20.401875 7.226875 19.80375 7.45375 19.1875 7.6875 C18.465625 7.790625 17.74375 7.89375 17 8 C15.97702078 7.02351983 14.98095748 6.01868662 14 5 C10.89992799 3.79950593 10.89992799 3.79950593 8 3 C8 2.34 8 1.68 8 1 C5.36 1 2.72 1 0 1 C0 0.67 0 0.34 0 0 Z " fill="#474C57" transform="translate(98,242)"/>
<path d="M0 0 C5.61 0 11.22 0 17 0 C17 1.32 17 2.64 17 4 C15.41058594 4.09087891 15.41058594 4.09087891 13.7890625 4.18359375 C12.40102779 4.26800127 11.01300768 4.35264917 9.625 4.4375 C8.92632812 4.47681641 8.22765625 4.51613281 7.5078125 4.55664062 C3.62639508 4.74280134 3.62639508 4.74280134 0 6 C0 4.02 0 2.04 0 0 Z " fill="#174F9C" transform="translate(266,273)"/>
<path d="M0 0 C0.66 0 1.32 0 2 0 C1.47731534 2.76276177 0.89130413 5.3260876 0 8 C-1.65 8 -3.3 8 -5 8 C-5 11.63 -5 15.26 -5 19 C-3.35 19 -1.7 19 0 19 C-0.33 20.32 -0.66 21.64 -1 23 C-1 22.34 -1 21.68 -1 21 C-2.98 21 -4.96 21 -7 21 C-7.93742541 18.18772378 -8.13470844 16.41253156 -8.125 13.5 C-8.12757812 12.7265625 -8.13015625 11.953125 -8.1328125 11.15625 C-8 9 -8 9 -7 6 C-5.02 6 -3.04 6 -1 6 C-0.67 4.02 -0.34 2.04 0 0 Z " fill="#3A4148" transform="translate(79,248)"/>
<path d="M0 0 C1.05960937 0.00676758 1.05960937 0.00676758 2.140625 0.01367188 C3.88545275 0.02546125 5.630237 0.04339676 7.375 0.0625 C7.375 1.3825 7.375 2.7025 7.375 4.0625 C-1.04 4.5575 -1.04 4.5575 -9.625 5.0625 C-9.625 3.7425 -9.625 2.4225 -9.625 1.0625 C-6.55966836 -0.47016582 -3.35745728 -0.04026471 0 0 Z " fill="#295CA1" transform="translate(299.625,272.9375)"/>
<path d="M0 0 C0 3.63 0 7.26 0 11 C-1.32 11 -2.64 11 -4 11 C-4 9.02 -4 7.04 -4 5 C-8.62 5 -13.24 5 -18 5 C-18 6.98 -18 8.96 -18 11 C-19.32 10.67 -20.64 10.34 -22 10 C-21.01 10 -20.02 10 -19 10 C-19 8.02 -19 6.04 -19 4 C-14.38 3.67 -9.76 3.34 -5 3 C-5 2.34 -5 1.68 -5 1 C-3 0 -3 0 0 0 Z " fill="#4876B7" transform="translate(334,274)"/>
<path d="M0 0 C6.27 0 12.54 0 19 0 C19 0.99 19 1.98 19 3 C13.39 3 7.78 3 2 3 C1.67 4.32 1.34 5.64 1 7 C0.67 6.67 0.34 6.34 0 6 C0 4.02 0 2.04 0 0 Z " fill="#0D499B" transform="translate(289,266)"/>
<path d="M0 0 C0.33 0.99 0.66 1.98 1 3 C6.61 3 12.22 3 18 3 C18 4.32 18 5.64 18 7 C11.07 7 4.14 7 -3 7 C-2.01 6.34 -1.02 5.68 0 5 C0.25030977 2.41619823 0.25030977 2.41619823 0 0 Z " fill="#164F9D" transform="translate(210,253)"/>
<path d="M0 0 C2.475 0.99 2.475 0.99 5 2 C2.92446352 2.5534764 1.15634036 3 -1 3 C-1.495 4.0725 -1.99 5.145 -2.5 6.25 C-2.7784375 6.85328125 -3.056875 7.4565625 -3.34375 8.078125 C-4.21542924 10.29242836 -4.21542924 10.29242836 -4 14 C-4.66 14 -5.32 14 -6 14 C-6.33 15.98 -6.66 17.96 -7 20 C-8.65 20 -10.3 20 -12 20 C-10.68 19.67 -9.36 19.34 -8 19 C-7.91087781 15.16774573 -8.12132271 11.73437848 -9 8 C-7.88625 7.13375 -7.88625 7.13375 -6.75 6.25 C-4.33912357 4.27746474 -2.15957299 2.23955718 0 0 Z " fill="#73777B" transform="translate(85,234)"/>
<path d="M0 0 C1.32 0 2.64 0 4 0 C4 6.27 4 12.54 4 19 C2.35 18.67 0.7 18.34 -1 18 C0.32 17.67 1.64 17.34 3 17 C2.67 15.35 2.34 13.7 2 12 C1.34 12 0.68 12 0 12 C0 8.04 0 4.08 0 0 Z " fill="#4978B6" transform="translate(256,266)"/>
<path d="M0 0 C0.33 0 0.66 0 1 0 C1.3690205 9.41002278 1.3690205 9.41002278 -1 14 C-3.5 12.9375 -3.5 12.9375 -6 11 C-6.3125 7.3125 -6.3125 7.3125 -6 4 C-4.35 4 -2.7 4 -1 4 C-0.67 2.68 -0.34 1.36 0 0 Z " fill="#43588D" transform="translate(81,253)"/>
<path d="M0 0 C4.62 0 9.24 0 14 0 C13.67 1.32 13.34 2.64 13 4 C8.38 4 3.76 4 -1 4 C-0.67 2.68 -0.34 1.36 0 0 Z " fill="#3663A3" transform="translate(210,281)"/>
<path d="M0 0 C0.99 0 1.98 0 3 0 C3.66 1.65 4.32 3.3 5 5 C4.34 5 3.68 5 3 5 C3 9.29 3 13.58 3 18 C2.01 18 1.02 18 0 18 C0 12.06 0 6.12 0 0 Z " fill="#0E489D" transform="translate(180,266)"/>
<path d="M0 0 C2.20914 3.31371 2.22481553 4.3446021 2.125 8.1875 C2.10695313 9.08855469 2.08890625 9.98960937 2.0703125 10.91796875 C2.03550781 11.94857422 2.03550781 11.94857422 2 13 C3.32 13.33 4.64 13.66 6 14 C6.33 13.01 6.66 12.02 7 11 C8.32 11 9.64 11 11 11 C11 11.66 11 12.32 11 13 C10.01 13 9.02 13 8 13 C7.67 14.32 7.34 15.64 7 17 C3.17972658 16.45424665 1.37098913 15.01396923 -1 12 C-1.171875 8.984375 -1.171875 8.984375 -0.75 5.75 C-0.62109375 4.67234375 -0.4921875 3.5946875 -0.359375 2.484375 C-0.24078125 1.66453125 -0.1221875 0.8446875 0 0 Z " fill="#353B44" transform="translate(121,256)"/>
<path d="M0 0 C0.33 1.32 0.66 2.64 1 4 C0.01 4.495 0.01 4.495 -1 5 C-1.33 6.32 -1.66 7.64 -2 9 C2.95 9 7.9 9 13 9 C12.67 9.66 12.34 10.32 12 11 C7.71 10.67 3.42 10.34 -1 10 C-1.33 10.99 -1.66 11.98 -2 13 C-3.65 13 -5.3 13 -7 13 C-6.36610765 9.50155614 -4.94822306 7.15913124 -2.9375 4.25 C-2.38964844 3.45078125 -1.84179688 2.6515625 -1.27734375 1.828125 C-0.85582031 1.22484375 -0.43429688 0.6215625 0 0 Z " fill="#7D9BC9" transform="translate(161,247)"/>
<path d="M0 0 C4.95 0 9.9 0 15 0 C15 1.32 15 2.64 15 4 C10.05 4 5.1 4 0 4 C0.99 3.67 1.98 3.34 3 3 C3 2.34 3 1.68 3 1 C2.01 0.67 1.02 0.34 0 0 Z " fill="#235293" transform="translate(211,249)"/>
<path d="M0 0 C1.175625 1.2065625 1.175625 1.2065625 2.375 2.4375 C5.63050267 5.6154907 7.23715078 6.12371508 11.625 6.5625 C12.44226563 6.64628906 13.25953125 6.73007812 14.1015625 6.81640625 C14.72804688 6.87699219 15.35453125 6.93757813 16 7 C15.67 7.99 15.34 8.98 15 10 C8.53673535 10.45356243 5.39068413 9.59378942 0 6 C0 5.34 0 4.68 0 4 C-0.66 4 -1.32 4 -2 4 C-2 3.34 -2 2.68 -2 2 C-1.34 2 -0.68 2 0 2 C0 1.34 0 0.68 0 0 Z " fill="#6A6867" transform="translate(92,267)"/>
<path d="M0 0 C2.84333459 1.42166729 4.58137614 2.89042728 6.625 5.3125 C6.625 5.9725 6.625 6.6325 6.625 7.3125 C7.285 7.3125 7.945 7.3125 8.625 7.3125 C8.955 8.3025 9.285 9.2925 9.625 10.3125 C8.635 11.3025 7.645 12.2925 6.625 13.3125 C6.625 12.6525 6.625 11.9925 6.625 11.3125 C5.965 11.3125 5.305 11.3125 4.625 11.3125 C4.295 11.9725 3.965 12.6325 3.625 13.3125 C2.965 10.0125 2.305 6.7125 1.625 3.3125 C-1.345 2.8175 -1.345 2.8175 -4.375 2.3125 C-4.375 1.6525 -4.375 0.9925 -4.375 0.3125 C-2.375 -0.6875 -2.375 -0.6875 0 0 Z " fill="#575B69" transform="translate(121.375,234.6875)"/>
<path d="M0 0 C3 1 3 1 5.375 3.4375 C9.49834463 7.46266976 13.39375812 8.21773369 19 9 C19 9.33 19 9.66 19 10 C17.06257659 10.02703381 15.12504521 10.04641125 13.1875 10.0625 C12.10855469 10.07410156 11.02960938 10.08570313 9.91796875 10.09765625 C7 10 7 10 4 9 C2.61328125 7.15234375 2.61328125 7.15234375 1.3125 4.9375 C0.87550781 4.20402344 0.43851562 3.47054688 -0.01171875 2.71484375 C-0.50091797 1.86599609 -0.50091797 1.86599609 -1 1 C-0.67 0.67 -0.34 0.34 0 0 Z " fill="#555B65" transform="translate(87,270)"/>
<path d="M0 0 C6.27 0 12.54 0 19 0 C19 0.99 19 1.98 19 3 C16.20775927 3.08071788 13.41783434 3.14035408 10.625 3.1875 C9.8309375 3.21263672 9.036875 3.23777344 8.21875 3.26367188 C6.14413852 3.29004405 4.06899135 3.15486462 2 3 C1.34 2.01 0.68 1.02 0 0 Z " fill="#0C4591" transform="translate(208,242)"/>
<path d="M0 0 C3.96 0 7.92 0 12 0 C11.67 1.98 11.34 3.96 11 6 C10.01 6 9.02 6 8 6 C8 5.34 8 4.68 8 4 C5.36 4 2.72 4 0 4 C0 2.68 0 1.36 0 0 Z " fill="#1F57A4" transform="translate(215,274)"/>
<path d="M0 0 C3.875 1.875 3.875 1.875 5 3 C5.13241142 4.72723342 5.23076852 6.45712778 5.3125 8.1875 C5.71527639 13.34303784 6.70337393 16.06531727 10 20 C9.01 20 8.02 20 7 20 C7 19.34 7 18.68 7 18 C6.360625 17.7525 5.72125 17.505 5.0625 17.25 C3 16 3 16 2.25 14.375 C2.0214434 12.20371228 2.01795107 10.17884751 2.0625 8 C2.11604745 4.81095181 1.81555139 2.72332709 0 0 Z " fill="#535149" transform="translate(113,253)"/>
<path d="M0 0 C0.66 0.33 1.32 0.66 2 1 C2 2.65 2 4.3 2 6 C5.3 5.67 8.6 5.34 12 5 C11.67 5.99 11.34 6.98 11 8 C6.38 8.33 1.76 8.66 -3 9 C-2.67 7.35 -2.34 5.7 -2 4 C-1.34 4 -0.68 4 0 4 C0 2.68 0 1.36 0 0 Z " fill="#0A49A4" transform="translate(162,247)"/>
<path d="M0 0 C3.20199548 -0.40876538 5.14448894 -0.61950801 7.8125 1.3125 C9 3 9 3 10 6 C8.35 6.33 6.7 6.66 5 7 C4.67 6.34 4.34 5.68 4 5 C2.02111039 4.27306096 0.02045442 3.60183749 -2 3 C-1.34 2.01 -0.68 1.02 0 0 Z " fill="#0B4A9C" transform="translate(383,266)"/>
<path d="M0 0 C1.32 1.32 2.64 2.64 4 4 C3.01 4.33 2.02 4.66 1 5 C0.87625 5.804375 0.7525 6.60875 0.625 7.4375 C0.41875 8.283125 0.2125 9.12875 0 10 C-2.76452033 11.38226016 -5.0461363 11.09525387 -8.125 11.0625 C-9.22070312 11.05347656 -10.31640625 11.04445313 -11.4453125 11.03515625 C-12.70988281 11.01775391 -12.70988281 11.01775391 -14 11 C-14 10.67 -14 10.34 -14 10 C-10.37 10 -6.74 10 -3 10 C-3.33 9.01 -3.66 8.02 -4 7 C-3.5625 4.3125 -3.5625 4.3125 -3 2 C-2.01 2 -1.02 2 0 2 C0 1.34 0 0.68 0 0 Z " fill="#767B7F" transform="translate(111,283)"/>
<path d="M0 0 C5.94 0 11.88 0 18 0 C18 0.66 18 1.32 18 2 C16.94039062 2.02578125 15.88078125 2.0515625 14.7890625 2.078125 C13.40099999 2.1343978 12.01298075 2.19174533 10.625 2.25 C9.57699219 2.27126953 9.57699219 2.27126953 8.5078125 2.29296875 C6.22282354 2.36035782 6.22282354 2.36035782 3 3 C1.43516506 4.91388341 1.43516506 4.91388341 1 7 C0.67 7 0.34 7 0 7 C0 4.69 0 2.38 0 0 Z " fill="#0748A3" transform="translate(157,267)"/>
<path d="M0 0 C0.66 0 1.32 0 2 0 C2 0.66 2 1.32 2 2 C2.598125 2.2475 3.19625 2.495 3.8125 2.75 C6.28647521 4.16370012 7.43370255 5.65055383 9 8 C2.63636364 8.48951049 2.63636364 8.48951049 -0.4375 6.125 C-2 4 -2 4 -2 2 C-1.34 1.34 -0.68 0.68 0 0 Z " fill="#4877B6" transform="translate(246,252)"/>
<path d="M0 0 C0.99 0 1.98 0 3 0 C6 4.22222222 6 4.22222222 6 7 C4.35 7 2.7 7 1 7 C0.67 5.68 0.34 4.36 0 3 C-3.96 3 -7.92 3 -12 3 C-12 2.67 -12 2.34 -12 2 C-11.21753906 1.93941406 -10.43507812 1.87882813 -9.62890625 1.81640625 C-8.61699219 1.73261719 -7.60507813 1.64882812 -6.5625 1.5625 C-5.55316406 1.48128906 -4.54382813 1.40007812 -3.50390625 1.31640625 C-1.06359221 1.26788532 -1.06359221 1.26788532 0 0 Z " fill="#0F4995" transform="translate(174,253)"/>
<path d="M0 0 C2.75105422 -0.10812003 5.49785087 -0.18734945 8.25 -0.25 C9.02730469 -0.28351563 9.80460938 -0.31703125 10.60546875 -0.3515625 C16.42997175 -0.45112665 16.42997175 -0.45112665 19.546875 2.015625 C20.02640625 2.67046875 20.5059375 3.3253125 21 4 C20.67 4.99 20.34 5.98 20 7 C18.68 7 17.36 7 16 7 C15.67 6.01 15.34 5.02 15 4 C15.66 3.67 16.32 3.34 17 3 C13.62231526 1.87410509 10.99187928 1.86705725 7.4375 1.875 C5.70306641 1.87113281 5.70306641 1.87113281 3.93359375 1.8671875 C1.06546562 1.79797384 1.06546562 1.79797384 -1 3 C-0.67 2.01 -0.34 1.02 0 0 Z " fill="#5178AF" transform="translate(207,266)"/>
<path d="M0 0 C0.33 0 0.66 0 1 0 C1.33 1.98 1.66 3.96 2 6 C2.33 5.01 2.66 4.02 3 3 C8.61 3 14.22 3 20 3 C20.33 2.01 20.66 1.02 21 0 C21 1.32 21 2.64 21 4 C15.39 4 9.78 4 4 4 C4 5.32 4 6.64 4 8 C3.01 8.495 3.01 8.495 2 9 C1.34 9.99 0.68 10.98 0 12 C0 8.04 0 4.08 0 0 Z " fill="#3869AC" transform="translate(288,266)"/>
<path d="M0 0 C0.66 0.33 1.32 0.66 2 1 C2 3.64 2 6.28 2 9 C1.34 9 0.68 9 0 9 C0 9.99 0 10.98 0 12 C-0.66 12 -1.32 12 -2 12 C-2 8.37 -2 4.74 -2 1 C-1.34 0.67 -0.68 0.34 0 0 Z " fill="#0C499A" transform="translate(372,269)"/>
<path d="M0 0 C1.46513058 0.01988865 2.93011492 0.05558907 4.39453125 0.10546875 C5.14412109 0.11900391 5.89371094 0.13253906 6.66601562 0.14648438 C8.51332892 0.18178336 10.36027191 0.23558958 12.20703125 0.29296875 C12.20703125 1.28296875 12.20703125 2.27296875 12.20703125 3.29296875 C5.93703125 3.29296875 -0.33296875 3.29296875 -6.79296875 3.29296875 C-3.79296875 0.29296875 -3.79296875 0.29296875 0 0 Z " fill="#10468F" transform="translate(295.79296875,280.70703125)"/>
<path d="M0 0 C0.66 0 1.32 0 2 0 C2 1.98 2 3.96 2 6 C5.3 6 8.6 6 12 6 C12 6.66 12 7.32 12 8 C8.04 8 4.08 8 0 8 C-0.38063221 5.6739143 -0.71269945 3.33944736 -1 1 C-0.67 0.67 -0.34 0.34 0 0 Z " fill="#333B47" transform="translate(96,285)"/>
<path d="M0 0 C1.0725 0.103125 2.145 0.20625 3.25 0.3125 C3.25 0.9725 3.25 1.6325 3.25 2.3125 C1.71875 3.6015625 1.71875 3.6015625 -0.25 4.9375 C-0.8996875 5.38351563 -1.549375 5.82953125 -2.21875 6.2890625 C-2.97671875 6.79566406 -2.97671875 6.79566406 -3.75 7.3125 C-3.75 6.3225 -3.75 5.3325 -3.75 4.3125 C-5.07 4.6425 -6.39 4.9725 -7.75 5.3125 C-5.36605526 1.49818842 -4.61542062 0.38461838 0 0 Z " fill="#5983B8" transform="translate(251.75,240.6875)"/>
<path d="M0 0 C3.3 0 6.6 0 10 0 C10 0.66 10 1.32 10 2 C9.34 2 8.68 2 8 2 C8 2.66 8 3.32 8 4 C5.36 4 2.72 4 0 4 C0 2.68 0 1.36 0 0 Z " fill="#1E55A3" transform="translate(380,274)"/>
<path d="M0 0 C0.33 0 0.66 0 1 0 C1.08096803 1.45742463 1.13917774 2.91612807 1.1875 4.375 C1.23970703 5.59316406 1.23970703 5.59316406 1.29296875 6.8359375 C1.19628906 7.55007812 1.09960938 8.26421875 1 9 C-2.72066472 11.48044315 -5.86540474 11.44381173 -10.1875 11.625 C-10.93708984 11.66367188 -11.68667969 11.70234375 -12.45898438 11.7421875 C-14.30559199 11.83628216 -16.1527619 11.91922319 -18 12 C-18 11.34 -18 10.68 -18 10 C-13.71 10 -9.42 10 -5 10 C-5 9.34 -5 8.68 -5 8 C-3.35 8 -1.7 8 0 8 C0 5.36 0 2.72 0 0 Z " fill="#4674B3" transform="translate(203,243)"/>
<path d="M0 0 C0.680625 0.00644531 1.36125 0.01289063 2.0625 0.01953125 C4 0.1875 4 0.1875 7 1.1875 C7 1.8475 7 2.5075 7 3.1875 C6.34 3.1875 5.68 3.1875 5 3.1875 C5 4.8375 5 6.4875 5 8.1875 C4.67 6.8675 4.34 5.5475 4 4.1875 C3.01 4.1875 2.02 4.1875 1 4.1875 C1 3.5275 1 2.8675 1 2.1875 C-1.64 2.1875 -4.28 2.1875 -7 2.1875 C-3.97455666 0.17053778 -3.38932618 -0.07061096 0 0 Z " fill="#15519F" transform="translate(196,241.8125)"/>
<path d="M0 0 C0.66 0 1.32 0 2 0 C1.67 2.31 1.34 4.62 1 7 C0.01 7.33 -0.98 7.66 -2 8 C-2.66 7.34 -3.32 6.68 -4 6 C-6.89223503 5.53603307 -6.89223503 5.53603307 -10.125 5.375 C-11.76855469 5.26285156 -11.76855469 5.26285156 -13.4453125 5.1484375 C-14.28835937 5.09945313 -15.13140625 5.05046875 -16 5 C-16 4.67 -16 4.34 -16 4 C-11.05 3.67 -6.1 3.34 -1 3 C-0.67 2.01 -0.34 1.02 0 0 Z " fill="#7CA2CF" transform="translate(226,276)"/>
<path d="M0 0 C0.33 0 0.66 0 1 0 C1 1.65 1 3.3 1 5 C1.99 5.33 2.98 5.66 4 6 C5.1875 9.0625 5.1875 9.0625 6 12 C5.34 12 4.68 12 4 12 C4 11.34 4 10.68 4 10 C3.38125 9.731875 2.7625 9.46375 2.125 9.1875 C0 8 0 8 -2 5 C-1.48275862 1.48275862 -1.48275862 1.48275862 0 0 Z " fill="#646768" transform="translate(78,275)"/>
<path d="M0 0 C1.18851562 0.00902344 2.37703125 0.01804687 3.6015625 0.02734375 C4.51679688 0.03894531 5.43203125 0.05054688 6.375 0.0625 C5.385 1.5475 5.385 1.5475 4.375 3.0625 C2.3515625 3.42578125 2.3515625 3.42578125 0 3.375 C-0.77085937 3.37113281 -1.54171875 3.36726563 -2.3359375 3.36328125 C-4.80502469 3.03884488 -6.47679272 2.29355029 -8.625 1.0625 C-5.74084117 -0.37957941 -3.20778472 -0.03144887 0 0 Z " fill="#0D4598" transform="translate(380.625,280.9375)"/>
<path d="M0 0 C0.66 0 1.32 0 2 0 C2 5.28 2 10.56 2 16 C1.01 15.67 0.02 15.34 -1 15 C-0.67 10.05 -0.34 5.1 0 0 Z " fill="#0B469C" transform="translate(338,267)"/>
<path d="M0 0 C0.042721 1.66611905 0.04063832 3.33382885 0 5 C-1 6 -1 6 -4.5625 6.0625 C-5.696875 6.041875 -6.83125 6.02125 -8 6 C-6.24081631 1.94034532 -4.71412298 0 0 0 Z " fill="#4772B0" transform="translate(237,254)"/>
<path d="M0 0 C0.33 0.99 0.66 1.98 1 3 C4.63 3 8.26 3 12 3 C12 3.33 12 3.66 12 4 C8.04 4 4.08 4 0 4 C0.5259375 5.423125 0.5259375 5.423125 1.0625 6.875 C2 10 2 10 1 12 C0.34 12 -0.32 12 -1 12 C-1.02687279 10.18757948 -1.04633715 8.37504767 -1.0625 6.5625 C-1.07410156 5.55316406 -1.08570313 4.54382813 -1.09765625 3.50390625 C-1 1 -1 1 0 0 Z " fill="#0F4B98" transform="translate(184,247)"/>
<path d="M0 0 C4.37859255 0.50522222 6.81651224 3.17827222 10 6 C9.67 6.66 9.34 7.32 9 8 C8.46375 7.690625 7.9275 7.38125 7.375 7.0625 C4.6015043 5.82172561 1.99957163 5.4090325 -1 5 C-1.33 5.99 -1.66 6.98 -2 8 C-2 6.68 -2 5.36 -2 4 C-0.68 4 0.64 4 2 4 C2 3.01 2 2.02 2 1 C1.34 0.67 0.68 0.34 0 0 Z " fill="#7A7771" transform="translate(107,247)"/>
<path d="M0 0 C1.32 0 2.64 0 4 0 C4.66 1.65 5.32 3.3 6 5 C5.38125 4.67 4.7625 4.34 4.125 4 C2.08981656 2.85806765 2.08981656 2.85806765 0 3 C0 3.99 0 4.98 0 6 C0.99 6.33 1.98 6.66 3 7 C2.34 7 1.68 7 1 7 C0.67 7.99 0.34 8.98 0 10 C-0.99 8.68 -1.98 7.36 -3 6 C-2 4 -1 2 0 0 Z " fill="#5781BB" transform="translate(165,241)"/>
<path d="M0 0 C0.99 0.66 1.98 1.32 3 2 C0.66666667 4.33333333 -1.66666667 6.66666667 -4 9 C-4.69748583 10.31747324 -5.36959957 11.64914193 -6 13 C-6.1953125 6.9453125 -6.1953125 6.9453125 -6 5 C-5.34 4.34 -4.68 3.68 -4 3 C-2.68 3 -1.36 3 0 3 C0 2.01 0 1.02 0 0 Z " fill="#696F73" transform="translate(92,245)"/>
<path d="M0 0 C2.64 1.98 5.28 3.96 8 6 C7.34 7.65 6.68 9.3 6 11 C4.68 9.68 3.36 8.36 2 7 C2.66 6.67 3.32 6.34 4 6 C2.68 5.34 1.36 4.68 0 4 C0 2.68 0 1.36 0 0 Z " fill="#5A85BC" transform="translate(348,266)"/>
<path d="M0 0 C1.0625 1.8125 1.0625 1.8125 2 4 C1.67 4.99 1.34 5.98 1 7 C2.37249963 9.67676547 2.37249963 9.67676547 4 12 C3.01 11.67 2.02 11.34 1 11 C1 10.34 1 9.68 1 9 C-0.32 9 -1.64 9 -3 9 C-3.33 9.66 -3.66 10.32 -4 11 C-4 9.68 -4 8.36 -4 7 C-3.34 7 -2.68 7 -2 7 C-2 6.01 -2 5.02 -2 4 C-1.34 4 -0.68 4 0 4 C0 2.68 0 1.36 0 0 Z " fill="#535E7B" transform="translate(86,265)"/>
<path d="M0 0 C0.33 0 0.66 0 1 0 C1.06058594 0.68707031 1.12117187 1.37414062 1.18359375 2.08203125 C1.26738281 2.98308594 1.35117188 3.88414062 1.4375 4.8125 C1.51871094 5.70582031 1.59992188 6.59914063 1.68359375 7.51953125 C1.93489767 10.12743559 1.93489767 10.12743559 3 13 C0.69 13.33 -1.62 13.66 -4 14 C-4.33 12.68 -4.66 11.36 -5 10 C-2.525 10.495 -2.525 10.495 0 11 C0 7.37 0 3.74 0 0 Z " fill="#4B7DBE" transform="translate(197,266)"/>
<path d="M0 0 C0.99 0 1.98 0 3 0 C5.27558936 2.43813146 6.01073343 4.21884499 5.96484375 7.55859375 C5.71340949 10.0552297 5.39920934 12.52297818 5 15 C4.67 15 4.34 15 4 15 C3.87882812 14.33613281 3.75765625 13.67226563 3.6328125 12.98828125 C2.77452292 8.46575541 1.96028689 4.20061476 0 0 Z " fill="#676E74" transform="translate(116,249)"/>
<path d="M0 0 C4.29 0.33 8.58 0.66 13 1 C12.67 1.66 12.34 2.32 12 3 C7.33710678 3.85486376 3.62372246 4.30042194 -1 3 C-0.67 2.01 -0.34 1.02 0 0 Z " fill="#383F4D" transform="translate(84,236)"/>
<path d="M0 0 C1.6875 2.0625 1.6875 2.0625 1.6875 4.0625 C-1.3125 3.0625 -1.3125 3.0625 -3.3125 0.0625 C-6.42860554 -0.52342634 -6.42860554 -0.52342634 -9.9375 -0.625 C-11.12601562 -0.69074219 -12.31453125 -0.75648438 -13.5390625 -0.82421875 C-14.45429687 -0.86160156 -15.36953125 -0.89898437 -16.3125 -0.9375 C-16.3125 -1.2675 -16.3125 -1.5975 -16.3125 -1.9375 C-4.33666737 -3.63342401 -4.33666737 -3.63342401 0 0 Z " fill="#323942" transform="translate(113.3125,281.9375)"/>
<path d="M0 0 C0.66 0 1.32 0 2 0 C1.34 2.31 0.68 4.62 0 7 C-0.598125 6.67 -1.19625 6.34 -1.8125 6 C-4.05386471 4.79212012 -4.05386471 4.79212012 -7 5 C-7.66 3.68 -8.32 2.36 -9 1 C-8.071875 1.350625 -7.14375 1.70125 -6.1875 2.0625 C-3.0197047 3.32382628 -3.0197047 3.32382628 0 2 C0 1.34 0 0.68 0 0 Z " fill="#3D4866" transform="translate(126,246)"/>
<path d="M0 0 C1.65 0 3.3 0 5 0 C5 4.29 5 8.58 5 13 C2.2173829 10.2173829 2.59069336 7.89667775 2.34375 4.09375 C2.17368193 1.78487741 2.17368193 1.78487741 0 0 Z " fill="#353D49" transform="translate(129,254)"/>
<path d="M0 0 C0.33 1.32 0.66 2.64 1 4 C-5.93 4 -12.86 4 -20 4 C-20 3.67 -20 3.34 -20 3 C-14.06 3 -8.12 3 -2 3 C-2 2.34 -2 1.68 -2 1 C-1.34 0.67 -0.68 0.34 0 0 Z " fill="#2E5F9F" transform="translate(227,256)"/>
<path d="M0 0 C1.77049689 -0.05410687 3.54146849 -0.09284119 5.3125 -0.125 C6.29863281 -0.14820313 7.28476563 -0.17140625 8.30078125 -0.1953125 C11 0 11 0 14 2 C13.67 2.66 13.34 3.32 13 4 C12.4225 3.814375 11.845 3.62875 11.25 3.4375 C9.03051082 2.81795531 9.03051082 2.81795531 7.0625 3.625 C5 4 5 4 2.25 2.625 C1.5075 2.08875 0.765 1.5525 0 1 C0 0.67 0 0.34 0 0 Z " fill="#343C48" transform="translate(110,236)"/>
<path d="M0 0 C1.32 0 2.64 0 4 0 C8.57142857 7.28571429 8.57142857 7.28571429 8 12 C7.73445312 11.41605469 7.46890625 10.83210938 7.1953125 10.23046875 C5.96918868 7.94250567 4.6053592 6.23930094 2.875 4.3125 C0 1.10047847 0 1.10047847 0 0 Z " fill="#4E4D48" transform="translate(124,275)"/>
<path d="M0 0 C1.65 0 3.3 0 5 0 C5 0.99 5 1.98 5 3 C5.99 3.33 6.98 3.66 8 4 C6.02 4.99 6.02 4.99 4 6 C4 5.34 4 4.68 4 4 C2.68 4 1.36 4 0 4 C0 2.68 0 1.36 0 0 Z " fill="#0A4AA3" transform="translate(239,249)"/>
<path d="M0 0 C2.31 0.33 4.62 0.66 7 1 C7.66 2.98 8.32 4.96 9 7 C8.01 6.67 7.02 6.34 6 6 C6 5.34 6 4.68 6 4 C4.02 3.34 2.04 2.68 0 2 C0 1.34 0 0.68 0 0 Z " fill="#2A5D9D" transform="translate(229,241)"/>
<path d="M0 0 C3.3 0 6.6 0 10 0 C9.67 0.99 9.34 1.98 9 3 C6.36 3 3.72 3 1 3 C0.67 2.01 0.34 1.02 0 0 Z " fill="#74706B" transform="translate(98,274)"/>
<path d="M0 0 C0.33 0 0.66 0 1 0 C1.02685095 2.47923801 1.04676547 4.9581884 1.0625 7.4375 C1.07087891 8.14455078 1.07925781 8.85160156 1.08789062 9.58007812 C1.09653588 11.38693559 1.05220011 13.19387603 1 15 C0 16 0 16 -2.5625 16.0625 C-3.366875 16.041875 -4.17125 16.02125 -5 16 C-4.01 15.67 -3.02 15.34 -2 15 C-0.80846071 11.88915492 -0.71249972 8.54999663 -0.4375 5.25 C-0.35371094 4.26515625 -0.26992187 3.2803125 -0.18359375 2.265625 C-0.12300781 1.51796875 -0.06242188 0.7703125 0 0 Z " fill="#7A7D80" transform="translate(134,254)"/>
<path d="M0 0 C3.1129903 1.63061397 4.60708576 3.53497255 6.625 6.375 C4.645 7.365 4.645 7.365 2.625 8.375 C2.295 6.725 1.965 5.075 1.625 3.375 C-1.345 2.88 -1.345 2.88 -4.375 2.375 C-4.375 1.715 -4.375 1.055 -4.375 0.375 C-2.375 -0.625 -2.375 -0.625 0 0 Z " fill="#737880" transform="translate(121.375,234.625)"/>
<path d="M0 0 C0.99 0.33 1.98 0.66 3 1 C5.05893621 1.22325814 7.12233653 1.40705759 9.1875 1.5625 C10.27417969 1.64628906 11.36085938 1.73007812 12.48046875 1.81640625 C13.72763672 1.90728516 13.72763672 1.90728516 15 2 C15 2.33 15 2.66 15 3 C14.09636719 3.06058594 13.19273437 3.12117188 12.26171875 3.18359375 C11.08222656 3.26738281 9.90273438 3.35117187 8.6875 3.4375 C7.51574219 3.51871094 6.34398437 3.59992188 5.13671875 3.68359375 C1.97409042 3.8867371 1.97409042 3.8867371 -1 5 C-1.33 4.34 -1.66 3.68 -2 3 C-1.34 3 -0.68 3 0 3 C0 2.01 0 1.02 0 0 Z " fill="#6B9CD8" transform="translate(372,278)"/>
<path d="M0 0 C0 1.98 0 3.96 0 6 C-1.32 6 -2.64 6 -4 6 C-4.33 4.35 -4.66 2.7 -5 1 C-1.125 0 -1.125 0 0 0 Z " fill="#0B4A9F" transform="translate(259,277)"/>
<path d="M0 0 C4.62 0 9.24 0 14 0 C14 1.32 14 2.64 14 4 C12.68 3.67 11.36 3.34 10 3 C10.33 2.34 10.66 1.68 11 1 C7.37 1 3.74 1 0 1 C0 0.67 0 0.34 0 0 Z " fill="#325E99" transform="translate(271,266)"/>
<path d="M0 0 C0.33 0.99 0.66 1.98 1 3 C2.32 3 3.64 3 5 3 C4.67 3.66 4.34 4.32 4 5 C2.66666667 5.33333333 1.33333333 5.66666667 0 6 C-0.33 6.66 -0.66 7.32 -1 8 C-1 6.68 -1 5.36 -1 4 C-1.66 3.67 -2.32 3.34 -3 3 C-2.01 2.01 -1.02 1.02 0 0 Z " fill="#5183BC" transform="translate(238,250)"/>
<path d="M0 0 C0.99 0.33 1.98 0.66 3 1 C4.1875 3.5625 4.1875 3.5625 5 6 C3.35 6.33 1.7 6.66 0 7 C-0.33 6.01 -0.66 5.02 -1 4 C-0.34 4 0.32 4 1 4 C0.67 2.68 0.34 1.36 0 0 Z " fill="#5277B2" transform="translate(388,266)"/>
<path d="M0 0 C2.1875 1.4375 2.1875 1.4375 4 3 C3.01 3.495 3.01 3.495 2 4 C1.34 3.67 0.68 3.34 0 3 C0.33 4.65 0.66 6.3 1 8 C-2 6 -2 6 -2.6875 3.375 C-2.790625 2.59125 -2.89375 1.8075 -3 1 C-2.01 0.67 -1.02 0.34 0 0 Z " fill="#908C85" transform="translate(95,264)"/>
<path d="M0 0 C0 0.33 0 0.66 0 1 C-2.31 1 -4.62 1 -7 1 C-7.33 2.65 -7.66 4.3 -8 6 C-8.99 5.34 -9.98 4.68 -11 4 C-10.67 3.01 -10.34 2.02 -10 1 C-6.78548731 -0.60725635 -3.56387464 -0.05748185 0 0 Z " fill="#8F8E8A" transform="translate(107,246)"/>
<path d="M0 0 C0 0.99 0 1.98 0 3 C-3.3 3 -6.6 3 -10 3 C-10 2.34 -10 1.68 -10 1 C-3.375 0 -3.375 0 0 0 Z " fill="#08489C" transform="translate(224,281)"/>
<path d="M0 0 C0.33 0 0.66 0 1 0 C1 1.98 1 3.96 1 6 C-0.32 6 -1.64 6 -3 6 C-3.33 4.68 -3.66 3.36 -4 2 C-2.68 2 -1.36 2 0 2 C0 1.34 0 0.68 0 0 Z " fill="#1852AA" transform="translate(364,277)"/>
<path d="M0 0 C0.99 0.33 1.98 0.66 3 1 C3 3.31 3 5.62 3 8 C-2.875 4.25 -2.875 4.25 -4 2 C-2.68 2.33 -1.36 2.66 0 3 C0 2.01 0 1.02 0 0 Z " fill="#618DC4" transform="translate(252,275)"/>
<path d="M0 0 C0 0.33 0 0.66 0 1 C-3.63 1 -7.26 1 -11 1 C-11 0.34 -11 -0.32 -11 -1 C-6.99799622 -2.60080151 -3.95443764 -1.29279692 0 0 Z " fill="#0945A1" transform="translate(305,276)"/>
<path d="M0 0 C1.98 0.495 1.98 0.495 4 1 C3.34 1.66 2.68 2.32 2 3 C1.67 3 1.34 3 1 3 C1 6.63 1 10.26 1 14 C-1.105184 10.842224 -1.25289344 10.04602866 -1.1875 6.4375 C-1.18105469 5.65246094 -1.17460938 4.86742187 -1.16796875 4.05859375 C-1 2 -1 2 0 0 Z " fill="#777573" transform="translate(89,255)"/>
<path d="M0 0 C1.65 1.32 3.3 2.64 5 4 C4.01 4.99 3.02 5.98 2 7 C1.67 6.01 1.34 5.02 1 4 C0.01 4 -0.98 4 -2 4 C-2 3.01 -2 2.02 -2 1 C-1.34 0.67 -0.68 0.34 0 0 Z " fill="#1D59A4" transform="translate(167,243)"/>
<path d="M0 0 C3 1 3 1 5 4 C5 4.99 5 5.98 5 7 C2.37812506 5.95125002 1.20628639 5.35068687 -0.25 2.875 C-0.4975 2.25625 -0.745 1.6375 -1 1 C-0.67 0.67 -0.34 0.34 0 0 Z " fill="#50585C" transform="translate(87,270)"/>
<path d="M0 0 C0.763125 0.61875 1.52625 1.2375 2.3125 1.875 C4.99625809 4.05597052 4.99625809 4.05597052 8 6 C7 7 7 7 4.4375 7.0625 C3.2309375 7.0315625 3.2309375 7.0315625 2 7 C1.855625 6.401875 1.71125 5.80375 1.5625 5.1875 C1.1127561 3.43849596 0.57107659 1.71322977 0 0 Z " fill="#7F7E7A" transform="translate(120,268)"/>
<path d="M0 0 C2 3 2 3 2 5 C3.65 5 5.3 5 7 5 C5.75 6.5625 5.75 6.5625 4 8 C1.8125 7.6875 1.8125 7.6875 0 7 C-0.93423645 3.98968256 -1.04449911 3.13349732 0 0 Z " fill="#6E737A" transform="translate(127,248)"/>
<path d="M0 0 C4 4.75 4 4.75 4 7 C2.35 7 0.7 7 -1 7 C-1.33 6.34 -1.66 5.68 -2 5 C-1.67 4.67 -1.34 4.34 -1 4 C-0.63837971 2.67405895 -0.30271961 1.34061543 0 0 Z " fill="#4A79B2" transform="translate(176,253)"/>
<path d="M0 0 C2.97 0.495 2.97 0.495 6 1 C7.04449911 4.13349732 6.93423645 4.98968256 6 8 C5.566875 7.236875 5.13375 6.47375 4.6875 5.6875 C3.26313215 3.41906232 1.96739903 1.7800277 0 0 Z " fill="#434856" transform="translate(89,283)"/>
<path d="M0 0 C0 0.99 0 1.98 0 3 C-1.8125 3.6875 -1.8125 3.6875 -4 4 C-5.75 2.5625 -5.75 2.5625 -7 1 C-4.53721199 -0.231394 -2.7204945 -0.07159196 0 0 Z " fill="#2361B1" transform="translate(200,279)"/>
<path d="M0 0 C0.91007812 0.10183594 1.82015625 0.20367187 2.7578125 0.30859375 C3.45648438 0.39238281 4.15515625 0.47617188 4.875 0.5625 C4.875 0.8925 4.875 1.2225 4.875 1.5625 C1.575 2.2225 -1.725 2.8825 -5.125 3.5625 C-5.785 2.5725 -6.445 1.5825 -7.125 0.5625 C-4.50184968 -0.74907516 -2.89466564 -0.33399988 0 0 Z " fill="#6B7076" transform="translate(101.125,242.4375)"/>
<path d="M0 0 C1.98 0.66 3.96 1.32 6 2 C5.01 2.495 5.01 2.495 4 3 C4 3.99 4 4.98 4 6 C3.01 5.67 2.02 5.34 1 5 C0.67 3.35 0.34 1.7 0 0 Z " fill="#484B58" transform="translate(83,283)"/>
<path d="M0 0 C3.63 0 7.26 0 11 0 C11.33 1.32 11.66 2.64 12 4 C11.34 4 10.68 4 10 4 C9.67 3.34 9.34 2.68 9 2 C6.87423218 1.53348793 6.87423218 1.53348793 4.4375 1.375 C3.61121094 1.30023438 2.78492187 1.22546875 1.93359375 1.1484375 C1.29550781 1.09945313 0.65742187 1.05046875 0 1 C0 0.67 0 0.34 0 0 Z " fill="#42506E" transform="translate(99,281)"/>
<path d="M0 0 C0.66 0 1.32 0 2 0 C2.33 0.99 2.66 1.98 3 3 C5.97 3.495 5.97 3.495 9 4 C9 4.33 9 4.66 9 5 C6.03 5 3.06 5 0 5 C0 3.35 0 1.7 0 0 Z " fill="#0647A0" transform="translate(157,278)"/>
<path d="M0 0 C2.97 0.495 2.97 0.495 6 1 C6.33 2.32 6.66 3.64 7 5 C4.0625 4.1875 4.0625 4.1875 1 3 C0.67 2.01 0.34 1.02 0 0 Z " fill="#0D4CA0" transform="translate(246,274)"/>
<path d="M0 0 C0 0.66 0 1.32 0 2 C-0.639375 2.12375 -1.27875 2.2475 -1.9375 2.375 C-2.618125 2.58125 -3.29875 2.7875 -4 3 C-4.33 3.66 -4.66 4.32 -5 5 C-6.32 4.67 -7.64 4.34 -9 4 C-9 3.34 -9 2.68 -9 2 C-2.25 0 -2.25 0 0 0 Z " fill="#475272" transform="translate(132,265)"/>
<path d="M0 0 C0.556875 0.474375 1.11375 0.94875 1.6875 1.4375 C4.18346074 3.12395996 6.0446237 3.58953107 9 4 C9 4.33 9 4.66 9 5 C6.03 5 3.06 5 0 5 C0 3.35 0 1.7 0 0 Z " fill="#475574" transform="translate(98,286)"/>
<path d="M0 0 C2.97 0.495 2.97 0.495 6 1 C5.01 1.33 4.02 1.66 3 2 C3 2.99 3 3.98 3 5 C3.66 5.33 4.32 5.66 5 6 C3.35 5.67 1.7 5.34 0 5 C0.66 4.67 1.32 4.34 2 4 C1.34 2.68 0.68 1.36 0 0 Z " fill="#435271" transform="translate(109,238)"/>
</svg>
